<svg width="131" height="131" viewBox="0 0 131 131" fill="none" xmlns="http://www.w3.org/2000/svg">
<circle cx="65.5" cy="65.5" r="63" fill="white" style="mix-blend-mode:multiply"/>
<circle cx="65.5" cy="65.5" r="63" stroke="white" stroke-width="5"/>
<path d="M47.8523 83.4773C45.1932 83.4773 42.8352 83.0227 40.7784 82.1136C38.733 81.1932 37.1193 79.9261 35.9375 78.3125C34.7557 76.6989 34.1534 74.8409 34.1307 72.7386H42.6193C42.6534 73.5 42.8977 74.1761 43.3523 74.767C43.8068 75.3466 44.4261 75.8011 45.2102 76.1307C45.9943 76.4602 46.8864 76.625 47.8864 76.625C48.8864 76.625 49.767 76.4489 50.5284 76.0966C51.3011 75.733 51.9034 75.2386 52.3352 74.6136C52.767 73.9773 52.9773 73.25 52.9659 72.4318C52.9773 71.6136 52.7443 70.8864 52.267 70.25C51.7898 69.6136 51.1136 69.1193 50.2386 68.767C49.375 68.4148 48.3523 68.2386 47.1705 68.2386H43.7784V62.2386H47.1705C48.2045 62.2386 49.1136 62.0682 49.8977 61.7273C50.6932 61.3864 51.3125 60.9091 51.7557 60.2955C52.1989 59.6705 52.4148 58.9545 52.4034 58.1477C52.4148 57.3636 52.2273 56.6761 51.8409 56.0852C51.4659 55.483 50.9375 55.017 50.2557 54.6875C49.5852 54.358 48.8068 54.1932 47.9205 54.1932C46.9886 54.1932 46.142 54.358 45.3807 54.6875C44.6307 55.017 44.0341 55.483 43.5909 56.0852C43.1477 56.6875 42.9148 57.3864 42.892 58.1818H34.8295C34.8523 56.1023 35.4318 54.2727 36.5682 52.6932C37.7045 51.1023 39.25 49.858 41.2045 48.9602C43.1705 48.0625 45.4091 47.6136 47.9205 47.6136C50.4205 47.6136 52.6193 48.0511 54.517 48.9261C56.4148 49.8011 57.892 50.9943 58.9489 52.5057C60.0057 54.0057 60.5341 55.7045 60.5341 57.6023C60.5455 59.5682 59.9034 61.1875 58.608 62.4602C57.3239 63.733 55.6705 64.517 53.6477 64.8125V65.0852C56.3523 65.4034 58.392 66.2784 59.767 67.7102C61.1534 69.142 61.8409 70.9318 61.8295 73.0795C61.8295 75.1023 61.233 76.8977 60.0398 78.4659C58.858 80.0227 57.2102 81.25 55.0966 82.1477C52.9943 83.0341 50.5795 83.4773 47.8523 83.4773ZM81.027 83.8523C77.9815 83.8523 75.3565 83.1307 73.152 81.6875C70.9474 80.233 69.2486 78.1477 68.0554 75.4318C66.8622 72.7045 66.2713 69.4261 66.2827 65.5966C66.294 61.767 66.8906 58.517 68.0724 55.8466C69.2656 53.1648 70.9588 51.125 73.152 49.7273C75.3565 48.3182 77.9815 47.6136 81.027 47.6136C84.0724 47.6136 86.6974 48.3182 88.902 49.7273C91.1179 51.125 92.8224 53.1648 94.0156 55.8466C95.2088 58.5284 95.7997 61.7784 95.7884 65.5966C95.7884 69.4375 95.1918 72.7216 93.9986 75.4489C92.8054 78.1761 91.1065 80.2614 88.902 81.7045C86.7088 83.1364 84.0838 83.8523 81.027 83.8523ZM81.027 76.9489C82.8452 76.9489 84.3168 76.0227 85.4418 74.1705C86.5668 72.3068 87.1236 69.4489 87.1122 65.5966C87.1122 63.0739 86.8565 60.9943 86.3452 59.358C85.8338 57.7102 85.1236 56.483 84.2145 55.6761C83.3054 54.8693 82.2429 54.4659 81.027 54.4659C79.2202 54.4659 77.7599 55.3807 76.6463 57.2102C75.5327 59.0284 74.9702 61.8239 74.9588 65.5966C74.9474 68.1534 75.1918 70.2727 75.6918 71.9545C76.2031 73.6364 76.919 74.892 77.8395 75.7216C78.7599 76.5398 79.8224 76.9489 81.027 76.9489Z" fill="white"/>
</svg>
