<svg width="25" height="24" viewBox="0 0 25 24" fill="none" xmlns="http://www.w3.org/2000/svg">
<path d="M12.1667 17.6036C11.7358 17.6036 11.3748 17.4576 11.0838 17.1656C10.7918 16.8747 10.6458 16.5137 10.6458 16.0828V5.20885L7.79427 8.06042C7.4901 8.36458 7.13524 8.51667 6.72969 8.51667C6.32413 8.51667 5.9566 8.35191 5.62708 8.0224C5.32292 7.71823 5.17742 7.35678 5.1906 6.93804C5.20277 6.52032 5.34826 6.17205 5.62708 5.89323L11.1021 0.418229C11.2542 0.266145 11.4189 0.158166 11.5964 0.0942914C11.7738 0.0314302 11.9639 0 12.1667 0C12.3694 0 12.5595 0.0314302 12.737 0.0942914C12.9144 0.158166 13.0792 0.266145 13.2312 0.418229L18.7062 5.89323C19.0104 6.1974 19.1559 6.55834 19.1427 6.97606C19.1306 7.3948 18.9851 7.74358 18.7062 8.0224C18.4021 8.32656 18.0411 8.48473 17.6234 8.4969C17.2047 8.51008 16.8432 8.36458 16.5391 8.06042L13.6875 5.20885V16.0828C13.6875 16.5137 13.542 16.8747 13.251 17.1656C12.959 17.4576 12.5976 17.6036 12.1667 17.6036ZM3.04167 23.687C2.20521 23.687 1.4894 23.3894 0.89425 22.7943C0.298083 22.1981 0 21.4818 0 20.6453V17.6036C0 17.1727 0.145493 16.8113 0.436479 16.5193C0.728479 16.2283 1.08993 16.0828 1.52083 16.0828C1.95174 16.0828 2.31319 16.2283 2.60519 16.5193C2.89617 16.8113 3.04167 17.1727 3.04167 17.6036V20.6453H21.2917V17.6036C21.2917 17.1727 21.4377 16.8113 21.7297 16.5193C22.0207 16.2283 22.3816 16.0828 22.8125 16.0828C23.2434 16.0828 23.6043 16.2283 23.8953 16.5193C24.1873 16.8113 24.3333 17.1727 24.3333 17.6036V20.6453C24.3333 21.4818 24.0358 22.1981 23.4406 22.7943C22.8444 23.3894 22.1281 23.687 21.2917 23.687H3.04167Z" fill="#808080"/>
</svg>
