<svg width="35" height="36" viewBox="0 0 35 36" fill="none" xmlns="http://www.w3.org/2000/svg">
<path d="M17.7772 3C9.62917 3 3 9.5496 3 17.6002C3 25.6509 9.62917 32.2004 17.7772 32.2004C25.9257 32.2004 32.5551 25.6509 32.5551 17.6002C32.5548 9.5496 25.9254 3 17.7772 3ZM17.7772 30.7604C10.4327 30.7604 4.4575 24.8568 4.4575 17.6002C4.4575 10.3438 10.4327 4.44 17.7772 4.44C25.1218 4.44 31.0975 10.3438 31.0975 17.6002C31.0974 24.8568 25.1218 30.7604 17.7772 30.7604Z" fill="white"/>
<path d="M21.7977 10H19.1251C19.119 9.99996 19.113 10.0002 19.1069 10.0008C16.4087 10.0097 16.0563 11.9643 16.0548 13.6727C16.0511 13.6889 16.0491 13.7055 16.0491 13.7221V14.9214H14.2025C14.1488 14.9214 14.0973 14.9436 14.0593 14.9829C14.0213 15.0224 14 15.0758 14 15.1315V18.0892C14 18.1449 14.0213 18.1984 14.0593 18.2378C14.0973 18.2773 14.1488 18.2993 14.2025 18.2993H16.0491V24.7898C16.0491 24.8456 16.0705 24.899 16.1085 24.9385C16.1464 24.9778 16.1979 25 16.2517 25H18.9466C19.0004 25 19.0519 24.9778 19.0899 24.9385C19.1279 24.899 19.1492 24.8456 19.1492 24.7898V18.2996H21.7974C21.8512 18.2996 21.9026 18.2774 21.9407 18.2381C21.9786 18.1986 22 18.1452 22 18.0894V15.1317C22 15.076 21.9786 15.0225 21.9407 14.9832C21.9026 14.9437 21.8512 14.9216 21.7974 14.9216H18.9466V13.3317H21.7974C21.8512 13.3317 21.9026 13.3096 21.9407 13.2702C21.9786 13.2308 22 13.1773 22 13.1216V10.2101C22 10.1825 21.9948 10.1552 21.9846 10.1297C21.9745 10.1042 21.9595 10.0811 21.9408 10.0616C21.9219 10.042 21.8997 10.0266 21.8751 10.016C21.8506 10.0054 21.8242 10 21.7977 10Z" fill="white"/>
</svg>
