<svg width="31" height="32" viewBox="0 0 31 32" fill="none" xmlns="http://www.w3.org/2000/svg">
<path d="M15.75 13.7295C15.3699 13.7295 14.9983 13.8404 14.6822 14.048C14.3661 14.2556 14.1198 14.5507 13.9743 14.896C13.8288 15.2412 13.7908 15.6212 13.8649 15.9877C13.9391 16.3541 14.1221 16.6909 14.3909 16.9551C14.6597 17.2194 15.0022 17.3993 15.375 17.4723C15.7479 17.5452 16.1342 17.5078 16.4855 17.3647C16.8367 17.2218 17.1369 16.9795 17.3481 16.6688C17.5593 16.3581 17.672 15.9927 17.672 15.6191C17.672 15.371 17.6222 15.1252 17.5257 14.896C17.4291 14.6667 17.2876 14.4584 17.109 14.283C16.9306 14.1075 16.7187 13.9683 16.4855 13.8734C16.2524 13.7784 16.0023 13.7295 15.75 13.7295ZM23.4458 11.8629C23.4417 11.2745 23.3315 10.6915 23.1202 10.141C22.9646 9.7381 22.7241 9.37227 22.4141 9.06757C22.1042 8.76288 21.7321 8.52626 21.3223 8.37333C20.7622 8.16568 20.1692 8.05734 19.5708 8.05333C18.571 8 18.2765 8 15.75 8C13.2235 8 12.929 8 11.9292 8.05333C11.3308 8.05734 10.7377 8.16568 10.1778 8.37333C9.76798 8.52626 9.39585 8.76288 9.08591 9.06757C8.77599 9.37227 8.53531 9.7381 8.37975 10.141C8.16853 10.6915 8.05833 11.2745 8.05425 11.8629C8 12.8457 8 13.1352 8 15.6191C8 18.1029 8 18.3924 8.05425 19.3753C8.06259 19.9657 8.17265 20.5504 8.37975 21.1048C8.53461 21.5058 8.77509 21.8694 9.085 22.1714C9.3936 22.4779 9.76652 22.7145 10.1778 22.8648C10.7377 23.0725 11.3308 23.1808 11.9292 23.1848C12.929 23.2381 13.2235 23.2381 15.75 23.2381C18.2765 23.2381 18.571 23.2381 19.5708 23.1848C20.1692 23.1808 20.7622 23.0725 21.3223 22.8648C21.7335 22.7145 22.1064 22.4779 22.415 22.1714C22.7248 21.8694 22.9654 21.5058 23.1202 21.1048C23.3312 20.5515 23.4414 19.966 23.4458 19.3753C23.5 18.3924 23.5 18.1029 23.5 15.6191C23.5 13.1352 23.5 12.8457 23.4458 11.8629ZM21.4772 17.9581C21.4524 18.4282 21.3503 18.8914 21.175 19.3295C21.0245 19.6949 20.8008 20.027 20.5173 20.3058C20.2337 20.5845 19.8959 20.8044 19.5243 20.9524C19.0744 21.1151 18.6006 21.2052 18.1215 21.2191C17.5092 21.2191 17.3465 21.2191 15.75 21.2191C14.1535 21.2191 13.9908 21.2191 13.3785 21.2191C12.8993 21.2052 12.4256 21.1151 11.9757 20.9524C11.5914 20.8121 11.2444 20.5881 10.9605 20.2972C10.6797 20.0238 10.4628 19.6936 10.325 19.3295C10.1588 18.8878 10.0697 18.4215 10.0615 17.9505C10.0615 17.3486 10.0615 17.1886 10.0615 15.6191C10.0615 14.0495 10.0615 13.8895 10.0615 13.2876C10.0697 12.8166 10.1588 12.3504 10.325 11.9086C10.4678 11.5307 10.6957 11.1895 10.9915 10.9105C11.2708 10.6359 11.6063 10.4229 11.9757 10.2857C12.4256 10.123 12.8993 10.0329 13.3785 10.019C13.9908 10.019 14.1535 10.019 15.75 10.019C17.3465 10.019 17.5092 10.019 18.1215 10.019C18.6006 10.0329 19.0744 10.123 19.5243 10.2857C19.9085 10.4261 20.2557 10.6501 20.5395 10.941C20.8204 11.2143 21.0372 11.5445 21.175 11.9086C21.3405 12.3509 21.4321 12.8166 21.4462 13.2876C21.4462 13.8895 21.4462 14.0495 21.4462 15.6191C21.4462 17.1886 21.5005 17.3486 21.4772 17.9505V17.9581ZM20.2373 12.2895C20.145 12.0434 19.9995 11.8199 19.8108 11.6345C19.6222 11.449 19.3948 11.306 19.1445 11.2152C18.8007 11.0981 18.4388 11.0414 18.075 11.0476C17.4705 11.0476 17.3 11.0476 15.75 11.0476C14.2 11.0476 14.0295 11.0476 13.425 11.0476C13.0594 11.0511 12.6973 11.1182 12.3555 11.2457C12.109 11.3323 11.8841 11.4695 11.6956 11.6482C11.5072 11.8268 11.3597 12.0428 11.2627 12.2819C11.1502 12.6212 11.0952 12.9765 11.1 13.3333C11.1 13.9276 11.1 14.0952 11.1 15.6191C11.1 17.1429 11.1 17.3105 11.1 17.9048C11.1077 18.2638 11.1758 18.619 11.3015 18.9562C11.3938 19.2023 11.5393 19.4258 11.7279 19.6113C11.9166 19.7967 12.1439 19.9398 12.3942 20.0305C12.7249 20.15 13.0729 20.2169 13.425 20.2286C14.0295 20.2286 14.2 20.2286 15.75 20.2286C17.3 20.2286 17.4705 20.2286 18.075 20.2286C18.4406 20.2251 18.8027 20.158 19.1445 20.0305C19.3948 19.9398 19.6222 19.7967 19.8108 19.6113C19.9995 19.4258 20.145 19.2023 20.2373 18.9562C20.367 18.6202 20.4352 18.2642 20.4387 17.9048C20.4387 17.3105 20.4387 17.1429 20.4387 15.6191C20.4387 14.0952 20.4387 13.9276 20.4387 13.3333C20.4389 12.9736 20.3707 12.6169 20.2373 12.2819V12.2895ZM15.75 18.5295C15.3616 18.5295 14.977 18.4543 14.6182 18.3078C14.2595 18.1615 13.9336 17.947 13.6593 17.6767C13.3851 17.4062 13.1677 17.0853 13.0198 16.7322C12.8719 16.3791 12.7962 16.0009 12.7973 15.6191C12.7973 15.0431 12.9711 14.4801 13.2967 14.0013C13.6224 13.5225 14.0852 13.1495 14.6266 12.9294C15.168 12.7093 15.7636 12.6521 16.3382 12.7651C16.9127 12.878 17.4401 13.1559 17.8538 13.5637C18.2677 13.9715 18.549 14.4909 18.6623 15.0559C18.7756 15.621 18.7159 16.2065 18.4907 16.7381C18.2653 17.2698 17.8848 17.7239 17.3969 18.0427C16.9089 18.3616 16.3359 18.5311 15.75 18.5295ZM18.85 13.28C18.6787 13.2622 18.5202 13.1826 18.4048 13.0567C18.2897 12.9308 18.226 12.7675 18.226 12.5981C18.226 12.4287 18.2897 12.2654 18.4048 12.1395C18.5202 12.0135 18.6787 11.934 18.85 11.9162C19.0213 11.934 19.1798 12.0135 19.2952 12.1395C19.4103 12.2654 19.474 12.4287 19.474 12.5981C19.474 12.7675 19.4103 12.9308 19.2952 13.0567C19.1798 13.1826 19.0213 13.2622 18.85 13.28Z" fill="white"/>
<path d="M15.4997 1C7.50466 1 1 7.50466 1 15.5C1 23.4955 7.50466 30 15.4997 30C23.4951 30 30 23.4955 30 15.5C29.9997 7.50466 23.4948 1 15.4997 1ZM15.4997 28.5699C8.29313 28.5699 2.43013 22.7068 2.43013 15.5C2.43013 8.29337 8.29313 2.43012 15.4997 2.43012C22.7063 2.43012 28.5698 8.29337 28.5698 15.5C28.5696 22.7068 22.7063 28.5699 15.4997 28.5699Z" fill="white"/>
</svg>
